<svg width="67" height="72" viewBox="0 0 67 72" fill="none" xmlns="http://www.w3.org/2000/svg">
<path d="M31.4633 11.1388H19.2641C10.2618 11.1604 2.98077 18.4746 3.00004 27.4769V51.9842C2.98077 60.9865 10.2618 68.3007 19.2641 68.3223H43.6624C52.6648 68.3007 59.9458 60.9865 59.9265 51.9842V35.646M45.2344 11.5812C46.6373 14.9795 51.1074 21.4146 57.769 19.9419M15.2031 56.0731H47.7357M56.1516 3.55586L62.9744 8.98884C63.6333 9.60895 64.0048 10.4751 63.9998 11.3799C63.9949 12.2847 63.614 13.1467 62.9483 13.7596L57.7637 19.9637L40.1228 41.0029C39.8142 41.3564 39.403 41.6046 38.9465 41.7131L29.7971 43.7869C28.5967 43.847 27.5517 42.9746 27.3965 41.7828V32.3807C27.4276 31.9274 27.6102 31.4978 27.9149 31.1608L45.229 11.5855L51.1718 4.48822C52.3475 2.94712 54.498 2.54447 56.1516 3.55586Z" stroke="#F47F49" stroke-width="5.5" stroke-linecap="round" stroke-linejoin="round"/>
</svg>
