<svg width="90" height="62" viewBox="0 0 90 62" fill="none" xmlns="http://www.w3.org/2000/svg">
<path d="M72.748 37.499H77.976C83.0382 37.604 87.0871 41.7377 87.0871 46.801C87.0871 51.8643 83.0382 55.998 77.976 56.103H72.748M17.3391 37.499H12.1111C7.04891 37.604 3 41.7377 3 46.801C3 51.8643 7.04891 55.998 12.1111 56.103H17.3391M54.6949 12.2676C54.6905 17.3011 50.6071 21.3785 45.5736 21.3756C40.54 21.3726 36.4614 17.2905 36.4629 12.2569C36.4644 7.2233 40.5453 3.14356 45.5789 3.14355C47.9977 3.14462 50.3169 4.10649 52.0265 5.81757C53.7361 7.52865 54.6959 9.84878 54.6949 12.2676ZM54.9863 34.8193H36.1863C29.6181 35.0257 24.4004 40.4099 24.4004 46.9813C24.4004 53.5528 29.6181 58.937 36.1863 59.1433H54.9863C61.5545 58.937 66.7722 53.5528 66.7722 46.9813C66.7722 40.4099 61.5545 35.0257 54.9863 34.8193ZM77.7506 19.2397C77.7484 23.0897 74.626 26.2091 70.776 26.2077C66.926 26.2062 63.8059 23.0843 63.8066 19.2343C63.8074 15.3843 66.9286 12.2637 70.7786 12.2637C72.6284 12.2637 74.4024 12.9988 75.71 14.3071C77.0176 15.6155 77.7517 17.3899 77.7506 19.2397ZM12.3359 19.2396C12.3359 23.0901 15.4574 26.2116 19.3079 26.2116C23.1585 26.2116 26.2799 23.0901 26.2799 19.2396C26.2799 15.389 23.1585 12.2676 19.3079 12.2676C15.4574 12.2676 12.3359 15.389 12.3359 19.2396Z" stroke="#F47F49" stroke-width="5.5" stroke-linecap="round" stroke-linejoin="round"/>
</svg>
